<mxfile host="app.diagrams.net" modified="2023-04-18T05:35:29.482Z" agent="Mozilla/5.0 (Windows NT 10.0; Win64; x64) AppleWebKit/537.36 (KHTML, like Gecko) Chrome/112.0.0.0 Safari/537.36" etag="WO8kpALh7R2Tm4ny1zXW" version="21.1.8" type="github">
  <diagram name="第 1 页" id="h4aul-ndlOBlijC8P2R9">
    <mxGraphModel dx="1434" dy="756" grid="1" gridSize="10" guides="1" tooltips="1" connect="1" arrows="1" fold="1" page="1" pageScale="1" pageWidth="827" pageHeight="1169" math="0" shadow="0">
      <root>
        <mxCell id="0" />
        <mxCell id="1" parent="0" />
        <mxCell id="ScTk0InKx_TZ2od-03tC-5" style="edgeStyle=orthogonalEdgeStyle;rounded=0;orthogonalLoop=1;jettySize=auto;html=1;" edge="1" parent="1" source="ScTk0InKx_TZ2od-03tC-2" target="ScTk0InKx_TZ2od-03tC-3">
          <mxGeometry relative="1" as="geometry" />
        </mxCell>
        <mxCell id="ScTk0InKx_TZ2od-03tC-2" value="&lt;font style=&quot;font-size: 18px;&quot;&gt;订单组包&lt;/font&gt;" style="rounded=1;whiteSpace=wrap;html=1;absoluteArcSize=1;arcSize=14;strokeWidth=2;" vertex="1" parent="1">
          <mxGeometry x="407.5" y="230" width="110" height="50" as="geometry" />
        </mxCell>
        <mxCell id="ScTk0InKx_TZ2od-03tC-6" style="edgeStyle=orthogonalEdgeStyle;rounded=0;orthogonalLoop=1;jettySize=auto;html=1;" edge="1" parent="1" source="ScTk0InKx_TZ2od-03tC-3" target="ScTk0InKx_TZ2od-03tC-4">
          <mxGeometry relative="1" as="geometry" />
        </mxCell>
        <mxCell id="ScTk0InKx_TZ2od-03tC-3" value="&lt;font style=&quot;font-size: 18px;&quot;&gt;交接单草稿&lt;/font&gt;" style="rounded=1;whiteSpace=wrap;html=1;absoluteArcSize=1;arcSize=14;strokeWidth=2;" vertex="1" parent="1">
          <mxGeometry x="377.5" y="300" width="170" height="60" as="geometry" />
        </mxCell>
        <mxCell id="ScTk0InKx_TZ2od-03tC-27" style="edgeStyle=orthogonalEdgeStyle;rounded=0;orthogonalLoop=1;jettySize=auto;html=1;" edge="1" parent="1" source="ScTk0InKx_TZ2od-03tC-4" target="ScTk0InKx_TZ2od-03tC-7">
          <mxGeometry relative="1" as="geometry" />
        </mxCell>
        <mxCell id="ScTk0InKx_TZ2od-03tC-4" value="&lt;font style=&quot;font-size: 18px;&quot;&gt;提交交接单&lt;/font&gt;" style="rounded=1;whiteSpace=wrap;html=1;absoluteArcSize=1;arcSize=14;strokeWidth=2;" vertex="1" parent="1">
          <mxGeometry x="377.5" y="380" width="170" height="60" as="geometry" />
        </mxCell>
        <mxCell id="ScTk0InKx_TZ2od-03tC-7" value="" style="rounded=1;whiteSpace=wrap;html=1;" vertex="1" parent="1">
          <mxGeometry x="197.5" y="460" width="530" height="380" as="geometry" />
        </mxCell>
        <mxCell id="ScTk0InKx_TZ2od-03tC-8" value="&lt;font style=&quot;font-size: 18px;&quot;&gt;控制核心业务逻辑&lt;/font&gt;" style="rounded=1;whiteSpace=wrap;html=1;fillColor=#cdeb8b;strokeColor=#36393d;" vertex="1" parent="1">
          <mxGeometry x="230" y="470" width="467.5" height="40" as="geometry" />
        </mxCell>
        <mxCell id="ScTk0InKx_TZ2od-03tC-9" style="edgeStyle=orthogonalEdgeStyle;rounded=0;orthogonalLoop=1;jettySize=auto;html=1;" edge="1" parent="1" source="ScTk0InKx_TZ2od-03tC-12" target="ScTk0InKx_TZ2od-03tC-15">
          <mxGeometry relative="1" as="geometry" />
        </mxCell>
        <mxCell id="ScTk0InKx_TZ2od-03tC-10" style="edgeStyle=orthogonalEdgeStyle;rounded=0;orthogonalLoop=1;jettySize=auto;html=1;entryX=0.5;entryY=0;entryDx=0;entryDy=0;" edge="1" parent="1" source="ScTk0InKx_TZ2od-03tC-12" target="ScTk0InKx_TZ2od-03tC-19">
          <mxGeometry relative="1" as="geometry" />
        </mxCell>
        <mxCell id="ScTk0InKx_TZ2od-03tC-11" style="edgeStyle=orthogonalEdgeStyle;rounded=0;orthogonalLoop=1;jettySize=auto;html=1;entryX=0.5;entryY=0;entryDx=0;entryDy=0;" edge="1" parent="1" source="ScTk0InKx_TZ2od-03tC-12" target="ScTk0InKx_TZ2od-03tC-23">
          <mxGeometry relative="1" as="geometry" />
        </mxCell>
        <mxCell id="ScTk0InKx_TZ2od-03tC-12" value="&lt;font style=&quot;font-size: 18px;&quot;&gt;请求路由&lt;/font&gt;" style="rounded=1;whiteSpace=wrap;html=1;fillColor=#cce5ff;strokeColor=#36393d;" vertex="1" parent="1">
          <mxGeometry x="231.25" y="530" width="467.5" height="40" as="geometry" />
        </mxCell>
        <mxCell id="ScTk0InKx_TZ2od-03tC-13" value="&lt;font style=&quot;font-size: 18px;&quot;&gt;控制核心业务逻辑&lt;/font&gt;" style="rounded=1;whiteSpace=wrap;html=1;fillColor=#cdeb8b;strokeColor=#36393d;" vertex="1" parent="1">
          <mxGeometry x="227.5" y="780" width="475" height="40" as="geometry" />
        </mxCell>
        <mxCell id="ScTk0InKx_TZ2od-03tC-15" value="" style="rounded=1;whiteSpace=wrap;html=1;fillColor=#cce5ff;strokeColor=#36393d;" vertex="1" parent="1">
          <mxGeometry x="230" y="620" width="135" height="140" as="geometry" />
        </mxCell>
        <mxCell id="ScTk0InKx_TZ2od-03tC-16" value="SMT" style="rounded=1;whiteSpace=wrap;html=1;fillColor=#ffcc99;strokeColor=#36393d;" vertex="1" parent="1">
          <mxGeometry x="252.5" y="665" width="90" height="50" as="geometry" />
        </mxCell>
        <mxCell id="ScTk0InKx_TZ2od-03tC-17" value="&lt;font style=&quot;font-size: 18px;&quot;&gt;请求数据组装&lt;/font&gt;" style="text;html=1;strokeColor=none;fillColor=none;align=center;verticalAlign=middle;whiteSpace=wrap;rounded=0;" vertex="1" parent="1">
          <mxGeometry x="242.5" y="635" width="110" height="25" as="geometry" />
        </mxCell>
        <mxCell id="ScTk0InKx_TZ2od-03tC-18" value="&lt;font style=&quot;font-size: 18px;&quot;&gt;响应数据抽取&lt;/font&gt;" style="text;html=1;strokeColor=none;fillColor=none;align=center;verticalAlign=middle;whiteSpace=wrap;rounded=0;" vertex="1" parent="1">
          <mxGeometry x="245" y="725" width="110" height="25" as="geometry" />
        </mxCell>
        <mxCell id="ScTk0InKx_TZ2od-03tC-19" value="" style="rounded=1;whiteSpace=wrap;html=1;fillColor=#cce5ff;strokeColor=#36393d;" vertex="1" parent="1">
          <mxGeometry x="397.5" y="620" width="135" height="140" as="geometry" />
        </mxCell>
        <mxCell id="ScTk0InKx_TZ2od-03tC-20" value="Shopee" style="rounded=1;whiteSpace=wrap;html=1;fillColor=#ffcc99;strokeColor=#36393d;" vertex="1" parent="1">
          <mxGeometry x="420" y="665" width="90" height="50" as="geometry" />
        </mxCell>
        <mxCell id="ScTk0InKx_TZ2od-03tC-21" value="&lt;font style=&quot;font-size: 18px;&quot;&gt;请求数据组装&lt;/font&gt;" style="text;html=1;strokeColor=none;fillColor=none;align=center;verticalAlign=middle;whiteSpace=wrap;rounded=0;" vertex="1" parent="1">
          <mxGeometry x="410" y="635" width="110" height="25" as="geometry" />
        </mxCell>
        <mxCell id="ScTk0InKx_TZ2od-03tC-22" value="&lt;font style=&quot;font-size: 18px;&quot;&gt;响应数据抽取&lt;/font&gt;" style="text;html=1;strokeColor=none;fillColor=none;align=center;verticalAlign=middle;whiteSpace=wrap;rounded=0;" vertex="1" parent="1">
          <mxGeometry x="412.5" y="725" width="110" height="25" as="geometry" />
        </mxCell>
        <mxCell id="ScTk0InKx_TZ2od-03tC-23" value="" style="rounded=1;whiteSpace=wrap;html=1;fillColor=#cce5ff;strokeColor=#36393d;" vertex="1" parent="1">
          <mxGeometry x="567.5" y="620" width="135" height="140" as="geometry" />
        </mxCell>
        <mxCell id="ScTk0InKx_TZ2od-03tC-24" value="Lazada" style="rounded=1;whiteSpace=wrap;html=1;fillColor=#ffcc99;strokeColor=#36393d;" vertex="1" parent="1">
          <mxGeometry x="590" y="665" width="90" height="50" as="geometry" />
        </mxCell>
        <mxCell id="ScTk0InKx_TZ2od-03tC-25" value="&lt;font style=&quot;font-size: 18px;&quot;&gt;请求数据组装&lt;/font&gt;" style="text;html=1;strokeColor=none;fillColor=none;align=center;verticalAlign=middle;whiteSpace=wrap;rounded=0;" vertex="1" parent="1">
          <mxGeometry x="580" y="635" width="110" height="25" as="geometry" />
        </mxCell>
        <mxCell id="ScTk0InKx_TZ2od-03tC-26" value="&lt;font style=&quot;font-size: 18px;&quot;&gt;响应数据抽取&lt;/font&gt;" style="text;html=1;strokeColor=none;fillColor=none;align=center;verticalAlign=middle;whiteSpace=wrap;rounded=0;" vertex="1" parent="1">
          <mxGeometry x="582.5" y="725" width="110" height="25" as="geometry" />
        </mxCell>
      </root>
    </mxGraphModel>
  </diagram>
</mxfile>
